<svg width="630" height="630" viewBox="0 0 630 630" fill="none" xmlns="http://www.w3.org/2000/svg">
<path d="M550 0H40C17.9086 0 0 17.9086 0 40V382.99L17.5356 384.727C34.4152 386.399 48.6771 372.354 47.2648 355.451L21.591 48.157C21.1359 42.7094 24.6725 37.7266 29.9651 36.3585C35.2577 34.9905 40.766 37.6354 43.0076 42.6212L169.459 323.866C176.414 339.337 195.696 344.711 209.651 335.069L463.155 159.921C467.692 156.786 473.828 157.384 477.675 161.335C481.514 165.277 481.955 171.41 478.721 175.861L298.105 424.461C288.106 438.224 293.082 457.686 308.46 464.96L587.657 597.013C592.608 599.355 595.165 604.91 593.725 610.194C592.268 615.537 587.152 619.036 581.644 618.455L274.664 586.091C257.726 584.305 243.346 598.377 244.764 615.35L245.988 630H590C612.091 630 630 612.091 630 590V80C630 35.8172 594.183 0 550 0Z" fill="white"/>
<path d="M21.591 48.157L47.2648 355.451C48.6771 372.354 34.4152 386.399 17.5356 384.727L0 382.99V466.495C0 488.587 17.9086 506.495 40 506.495H82.9942C105.086 506.495 122.994 524.404 122.994 546.495V590C122.994 612.091 140.903 630 162.994 630H245.988L244.764 615.35C243.346 598.377 257.726 584.305 274.664 586.091L581.644 618.455C587.152 619.036 592.268 615.537 593.725 610.194C595.165 604.91 592.608 599.355 587.657 597.013L308.46 464.96C293.082 457.686 288.106 438.224 298.105 424.461L478.721 175.861C481.955 171.41 481.514 165.277 477.675 161.335C473.828 157.384 467.692 156.786 463.155 159.921L209.651 335.069C195.696 344.711 176.414 339.337 169.459 323.866L43.0076 42.6212C40.766 37.6354 35.2577 34.9905 29.9651 36.3585C24.6725 37.7266 21.1359 42.7094 21.591 48.157Z" fill="#0D0D0D"/>
</svg>