<svg width="470" height="534" viewBox="0 0 470 534" fill="none" xmlns="http://www.w3.org/2000/svg">
<path d="M171.464 523.386L464.113 414.5M461.381 402.676L311.937 1.02522L21.1656 109.213L29.3666 131.255L170.118 519.672L171.464 523.386L172.2 525.367L463.559 416.96M312.718 2.59703L313.752 2.21261L314.392 3.93459M462.586 402.228L461.381 402.676M462.586 402.228L464.136 401.651L316.006 3.53016L314.392 3.93459M462.586 402.228L314.392 3.93459M461.381 402.676L465.577 413.955L464.113 414.5M464.113 414.5L464.85 416.48L463.559 416.96M170.118 519.672L169.57 519.876M29.3666 131.255L165.006 521.574L169.57 519.876M463.559 416.96L464.167 418.596L172.293 527.195L169.57 519.876M32.6909 115.903L35.6061 123.738L43.0105 120.983L40.0954 113.148L32.6909 115.903ZM38.9377 132.692L41.7888 140.355L49.1933 137.6L46.3422 129.937L38.9377 132.692ZM45.1204 149.309L47.9715 156.972L55.376 154.217L52.5249 146.554L45.1204 149.309ZM52.2562 167.434L55.1073 175.097L62.5118 172.342L59.6607 164.679L52.2562 167.434ZM58.2147 183.449L61.0658 191.111L68.4703 188.356L65.6192 180.694L58.2147 183.449ZM64.6217 200.668L67.4728 208.331L74.8773 205.576L72.0262 197.913L64.6217 200.668ZM70.9006 217.544L73.7517 225.207L81.1562 222.452L78.3051 214.789L70.9006 217.544ZM77.3076 234.763L80.1587 242.426L87.5632 239.671L84.7121 232.008L77.3076 234.763ZM83.5864 251.639L86.4375 259.302L93.842 256.547L90.9909 248.884L83.5864 251.639ZM89.8653 268.514L92.7164 276.177L100.121 273.422L97.2698 265.759L89.8653 268.514ZM96.6567 286.767L99.5078 294.43L106.912 291.675L104.061 284.012L96.6567 286.767ZM102.423 302.265L105.274 309.928L112.679 307.173L109.827 299.51L102.423 302.265ZM108.734 319.226L111.585 326.889L118.989 324.134L116.138 316.471L108.734 319.226ZM115.045 336.188L117.896 343.851L125.3 341.096L122.449 333.433L115.045 336.188ZM121.356 353.149L124.207 360.812L131.611 358.057L128.76 350.394L121.356 353.149ZM127.634 370.025L130.486 377.687L137.89 374.932L135.039 367.27L127.634 370.025ZM133.849 386.728L136.7 394.391L144.105 391.636L141.254 383.973L133.849 386.728ZM140.064 403.431L142.915 411.094L150.32 408.339L147.469 400.676L140.064 403.431ZM146.343 420.306L149.194 427.969L156.599 425.214L153.747 417.551L146.343 420.306ZM152.109 435.804L154.96 443.467L162.365 440.712L159.514 433.049L152.109 435.804ZM158.901 454.057L161.752 461.72L169.156 458.965L166.305 451.302L158.901 454.057ZM164.667 469.555L167.518 477.218L174.922 474.463L172.071 466.8L164.667 469.555ZM171.458 487.808L174.309 495.471L181.714 492.716L178.863 485.053L171.458 487.808ZM177.737 504.683L180.588 512.346L187.993 509.591L185.142 501.928L177.737 504.683Z" stroke="black" stroke-width="0.2"/>
<path d="M65.7476 281.409C76.9583 275.877 93.3773 270.05 95.0212 270.517C95.4164 270.629 95.3416 271.378 95.3416 271.378M81.3073 280.814L66.0559 286.979C66.0559 286.979 64.8184 287.341 64.1191 287.307C64.0278 287.303 63.2745 287.257 63.1105 286.703C62.9639 286.206 62.9609 285.661 63.4149 285.413C75.0775 279.038 81.9786 275.868 95.3416 271.378M95.3416 271.378L98.5932 273.795M66.0559 286.979C68.5437 284.752 86.1012 275.939 92.9873 274.271M95.4877 273.088C94.7118 273.455 93.8734 273.851 92.9873 274.271M80.0739 277.106C80.0739 277.106 69.3597 281.633 64.358 282.416C63.6096 282.533 62.906 282.56 62.5099 281.927C62.0982 281.269 62.2619 280.318 62.9665 279.993C72.6193 275.535 92.9728 268.436 94.801 268.344C96.2832 268.27 96.6491 268.833 96.8313 269.059C98.0687 270.596 98.5932 273.795 98.5932 273.795L96.5269 274.563L92.9873 274.271" stroke="black" stroke-width="0.2"/>
<path d="M102.197 289.803C88.8341 294.293 81.933 297.463 70.2704 303.838C69.8164 304.087 69.8194 304.632 69.966 305.128C70.13 305.683 70.8834 305.728 70.9746 305.733C71.6739 305.767 72.9114 305.404 72.9114 305.404L87.822 299.377M72.9114 305.404C75.3992 303.177 92.9567 294.364 99.8428 292.696M99.8428 292.696C100.729 292.277 101.567 291.88 102.343 291.513M86.5205 295.708C86.5205 295.708 76.2152 300.058 71.2135 300.841C70.4651 300.958 69.7615 300.985 69.3654 300.352C68.9537 299.695 69.1174 298.744 69.822 298.418C79.4749 293.96 99.8283 286.861 101.656 286.769C103.139 286.695 103.505 287.258 103.687 287.484C104.924 289.021 105.449 292.22 105.449 292.22L103.382 292.989L99.8428 292.696M105.449 292.22L102.197 289.803M102.197 289.803C102.197 289.803 102.272 289.054 101.877 288.942C100.233 288.475 83.8138 294.302 72.6032 299.834" stroke="black" stroke-width="0.2"/>
<path d="M105.609 308.194L109.149 308.486L111.215 307.717C111.215 307.717 110.69 304.519 109.453 302.982C109.271 302.756 108.905 302.192 107.423 302.267C105.595 302.359 85.2411 309.458 75.5882 313.916C74.8836 314.241 74.72 315.192 75.1317 315.85C75.5277 316.483 76.2313 316.456 76.9798 316.339C81.2712 315.667 89.662 312.243 91.9584 311.285M107.963 305.301C94.6004 309.791 87.6993 312.961 76.0366 319.336C75.5826 319.584 75.5856 320.129 75.7323 320.626C75.8962 321.18 76.6496 321.226 76.7409 321.23C77.4401 321.264 78.6776 320.902 78.6776 320.902L93.2474 315.013M78.6776 320.902C81.1654 318.674 98.7229 309.862 105.609 308.194M105.609 308.194C106.495 307.774 107.334 307.378 108.109 307.011M111.215 307.717L107.963 305.301M78.3694 315.332C89.5801 309.8 105.999 303.973 107.643 304.44C108.038 304.552 107.963 305.301 107.963 305.301" stroke="black" stroke-width="0.2"/>
<path d="M111.92 325.155L115.46 325.448L117.526 324.679C117.526 324.679 117.001 321.48 115.764 319.943C115.582 319.717 115.216 319.154 113.734 319.228C111.906 319.32 91.552 326.419 81.8992 330.877C81.1946 331.203 81.0309 332.154 81.4426 332.811C81.8387 333.444 82.5423 333.417 83.2907 333.3C87.3924 332.658 95.2388 329.502 97.9298 328.387M114.274 322.262C100.911 326.752 94.0102 329.922 82.3476 336.297C81.8936 336.546 81.8966 337.091 82.0432 337.587C82.2072 338.142 82.9605 338.187 83.0518 338.192C83.7511 338.226 84.9886 337.863 84.9886 337.863L99.2176 332.112M84.9886 337.863C87.4764 335.636 105.034 326.823 111.92 325.155M111.92 325.155C112.806 324.736 113.645 324.339 114.42 323.972M117.526 324.679L114.274 322.262M84.6803 332.293C95.891 326.761 112.31 320.934 113.954 321.401C114.349 321.513 114.274 322.262 114.274 322.262" stroke="black" stroke-width="0.2"/>
<path d="M118.231 342.116L121.77 342.409L123.837 341.64C123.837 341.64 123.312 338.442 122.075 336.905C121.893 336.678 121.527 336.115 120.045 336.19C118.216 336.282 97.8629 343.38 88.2101 347.839C87.5055 348.164 87.3418 349.115 87.7535 349.773C88.1495 350.406 88.8531 350.379 89.6016 350.261C93.5178 349.648 100.848 346.744 103.845 345.512M120.585 339.223C107.222 343.713 100.321 346.884 88.6585 353.259C88.2045 353.507 88.2075 354.052 88.3541 354.548C88.518 355.103 89.2714 355.149 89.3627 355.153C90.0619 355.187 91.2994 354.825 91.2994 354.825L105.102 349.245M91.2994 354.825C93.7872 352.597 111.345 343.785 118.231 342.116M118.231 342.116C119.117 341.697 119.955 341.301 120.731 340.933M123.837 341.64L120.585 339.223M90.9912 349.254C102.202 343.723 118.621 337.896 120.265 338.363C120.66 338.475 120.585 339.223 120.585 339.223" stroke="black" stroke-width="0.2"/>
<path d="M97.3021 366.216C108.513 360.684 124.932 354.857 126.576 355.324C126.971 355.436 126.896 356.185 126.896 356.185M124.542 359.078L128.081 359.371L130.148 358.602C130.148 358.602 129.623 355.403 128.386 353.866C128.204 353.64 127.838 353.077 126.355 353.151C124.527 353.243 104.174 360.342 94.5209 364.8C93.8163 365.126 93.6526 366.076 94.0644 366.734C94.4604 367.367 95.164 367.34 95.9125 367.223C99.6762 366.634 106.593 363.928 109.786 362.625M126.896 356.185C113.533 360.675 106.632 363.845 94.9693 370.22C94.5153 370.468 94.5183 371.014 94.665 371.51C94.8289 372.065 95.5823 372.11 95.6736 372.115C96.3728 372.148 97.6103 371.786 97.6103 371.786L111.072 366.345M97.6103 371.786C100.098 369.559 117.656 360.746 124.542 359.078M124.542 359.078C125.428 358.659 126.266 358.262 127.042 357.895M130.148 358.602L126.896 356.185" stroke="black" stroke-width="0.2"/>
<path d="M130.821 375.953L134.36 376.246L136.427 375.477C136.427 375.477 135.902 372.279 134.665 370.742C134.482 370.515 134.116 369.952 132.634 370.027C130.806 370.119 110.453 377.217 100.8 381.676C100.095 382.001 99.9315 382.952 100.343 383.61C100.739 384.243 101.443 384.216 102.191 384.098C105.811 383.532 112.378 381.107 115.714 379.756M133.175 373.06C119.812 377.55 112.911 380.721 101.248 387.096C100.794 387.344 100.797 387.889 100.944 388.385C101.108 388.94 101.861 388.986 101.952 388.99C102.652 389.024 103.889 388.662 103.889 388.662L116.987 383.367M103.889 388.662C106.377 386.434 123.934 377.622 130.821 375.953M130.821 375.953C131.707 375.534 132.545 375.137 133.321 374.77M136.427 375.477L133.175 373.06M103.581 383.091C114.792 377.56 131.211 371.733 132.855 372.199C133.25 372.312 133.175 373.06 133.175 373.06" stroke="black" stroke-width="0.2"/>
<path d="M137.035 392.656L140.575 392.949L142.641 392.18C142.641 392.18 142.117 388.982 140.879 387.445C140.697 387.219 140.331 386.655 138.849 386.73C137.021 386.822 116.667 393.92 107.015 398.379C106.31 398.704 106.146 399.655 106.558 400.313C106.954 400.946 107.658 400.919 108.406 400.802C111.908 400.253 118.171 397.989 121.594 396.61M139.39 389.764C126.027 394.253 119.126 397.424 107.463 403.799C107.009 404.047 107.012 404.592 107.159 405.088C107.323 405.643 108.076 405.689 108.167 405.693C108.866 405.727 110.104 405.365 110.104 405.365L122.84 400.217M110.104 405.365C112.592 403.137 130.149 394.325 137.035 392.656M137.035 392.656C137.921 392.237 138.76 391.841 139.536 391.473M142.641 392.18L139.39 389.764M109.796 399.794C121.006 394.263 137.425 388.436 139.069 388.903C139.464 389.015 139.39 389.764 139.39 389.764" stroke="black" stroke-width="0.2"/>
<path d="M143.25 409.36L146.79 409.652L148.856 408.883C148.856 408.883 148.332 405.685 147.094 404.148C146.912 403.922 146.546 403.358 145.064 403.433C143.236 403.525 122.882 410.624 113.229 415.082C112.525 415.407 112.361 416.358 112.773 417.016C113.169 417.649 113.872 417.622 114.621 417.505C117.994 416.977 123.962 414.872 127.451 413.477M145.604 406.467C132.241 410.957 125.34 414.127 113.678 420.502C113.224 420.75 113.227 421.295 113.373 421.792C113.537 422.346 114.291 422.392 114.382 422.396C115.081 422.43 116.319 422.068 116.319 422.068L128.725 417.053M116.319 422.068C118.807 419.84 136.364 411.028 143.25 409.36M143.25 409.36C144.136 408.94 144.975 408.544 145.751 408.177M148.856 408.883L145.604 406.467M116.01 416.498C127.221 410.966 143.64 405.139 145.284 405.606C145.679 405.718 145.604 406.467 145.604 406.467" stroke="black" stroke-width="0.2"/>
<path d="M122.289 433.373C133.5 427.841 149.919 422.014 151.563 422.481C151.958 422.593 151.883 423.342 151.883 423.342M149.529 426.235L153.069 426.528L155.135 425.759C155.135 425.759 154.61 422.56 153.373 421.024C153.191 420.797 152.825 420.234 151.343 420.309C149.515 420.4 129.161 427.499 119.508 431.957C118.804 432.283 118.64 433.234 119.052 433.892C119.448 434.524 120.151 434.497 120.9 434.38C124.165 433.869 129.796 431.747 133.318 430.348M151.883 423.342C138.52 427.832 131.619 431.002 119.957 437.378C119.503 437.626 119.506 438.171 119.652 438.667C119.816 439.222 120.57 439.267 120.661 439.272C121.36 439.306 122.598 438.943 122.598 438.943L134.611 434.087M122.598 438.943C125.085 436.716 142.643 427.904 149.529 426.235M149.529 426.235C150.415 425.816 151.254 425.419 152.029 425.052M155.135 425.759L151.883 423.342" stroke="black" stroke-width="0.2"/>
<path d="M128.056 448.871C139.266 443.339 155.685 437.512 157.329 437.979C157.724 438.091 157.65 438.84 157.65 438.84M155.295 441.733L158.835 442.025L160.901 441.256C160.901 441.256 160.377 438.058 159.139 436.521C158.957 436.295 158.591 435.732 157.109 435.806C155.281 435.898 134.927 442.997 125.274 447.455C124.57 447.78 124.406 448.731 124.818 449.389C125.214 450.022 125.918 449.995 126.666 449.878C129.827 449.383 135.214 447.395 138.749 445.999M157.65 438.84C144.287 443.33 137.386 446.5 125.723 452.875C125.269 453.123 125.272 453.668 125.419 454.165C125.582 454.719 126.336 454.765 126.427 454.769C127.126 454.803 128.364 454.441 128.364 454.441L140.037 449.723M128.364 454.441C130.852 452.213 148.409 443.401 155.295 441.733M155.295 441.733C156.181 441.313 157.02 440.917 157.796 440.55M160.901 441.256L157.65 438.84" stroke="black" stroke-width="0.2"/>
<path d="M134.847 467.124C146.058 461.592 162.477 455.765 164.121 456.232C164.516 456.344 164.441 457.093 164.441 457.093M162.087 459.986L165.626 460.279L167.693 459.51C167.693 459.51 167.168 456.311 165.931 454.774C165.748 454.548 165.383 453.985 163.9 454.06C162.072 454.151 141.719 461.25 132.066 465.708C131.361 466.034 131.198 466.985 131.609 467.643C132.005 468.275 132.709 468.248 133.457 468.131C136.494 467.656 141.583 465.803 145.113 464.42M164.441 457.093C151.078 461.583 144.177 464.753 132.514 471.129C132.06 471.377 132.063 471.922 132.21 472.418C132.374 472.973 133.127 473.018 133.219 473.023C133.918 473.057 135.155 472.694 135.155 472.694L146.402 468.148M135.155 472.694C137.643 470.467 155.201 461.654 162.087 459.986M162.087 459.986C162.973 459.567 163.811 459.17 164.587 458.803M167.693 459.51L164.441 457.093" stroke="black" stroke-width="0.2"/>
<path d="M140.613 482.622C151.824 477.09 168.243 471.263 169.887 471.73C170.282 471.842 170.207 472.591 170.207 472.591M167.853 475.484L171.393 475.776L173.459 475.007C173.459 475.007 172.934 471.809 171.697 470.272C171.515 470.046 171.149 469.483 169.667 469.557C167.838 469.649 147.485 476.748 137.832 481.206C137.128 481.531 136.964 482.482 137.376 483.14C137.772 483.773 138.475 483.746 139.224 483.629C142.174 483.167 147.061 481.405 150.574 480.037M170.207 472.591C156.844 477.081 149.943 480.251 138.281 486.626C137.827 486.874 137.83 487.419 137.976 487.916C138.14 488.47 138.894 488.516 138.985 488.52C139.684 488.554 140.922 488.192 140.922 488.192L151.869 483.767M140.922 488.192C143.409 485.964 160.967 477.152 167.853 475.484M167.853 475.484C168.739 475.064 169.577 474.668 170.353 474.301M173.459 475.007L170.207 472.591" stroke="black" stroke-width="0.2"/>
<path d="M174.644 493.736L178.184 494.029L180.25 493.26C180.25 493.26 179.726 490.062 178.488 488.525C178.306 488.299 177.94 487.735 176.458 487.81C174.63 487.902 154.276 495.001 144.624 499.459C143.919 499.784 143.755 500.735 144.167 501.393C144.563 502.026 145.267 501.999 146.015 501.882C148.86 501.436 153.507 499.781 156.986 498.437M176.999 490.844C163.636 495.333 156.735 498.504 145.072 504.879C144.618 505.127 144.621 505.672 144.768 506.168C144.932 506.723 145.685 506.769 145.776 506.773C146.475 506.807 147.713 506.445 147.713 506.445L158.193 502.209M147.713 506.445C150.201 504.217 167.758 495.405 174.644 493.736M174.644 493.736C175.53 493.317 176.369 492.921 177.145 492.554M180.25 493.26L176.999 490.844M147.405 500.875C158.615 495.343 175.034 489.516 176.678 489.983C177.073 490.095 176.999 490.844 176.999 490.844" stroke="black" stroke-width="0.2"/>
<path d="M153.684 517.75C164.894 512.218 181.313 506.391 182.957 506.858C183.352 506.97 183.278 507.719 183.278 507.719M180.923 510.612L184.463 510.905L186.529 510.136C186.529 510.136 186.005 506.937 184.767 505.4C184.585 505.174 184.219 504.611 182.737 504.685C180.909 504.777 160.555 511.876 150.902 516.334C150.198 516.66 150.034 517.611 150.446 518.269C150.842 518.901 151.546 518.874 152.294 518.757C155.042 518.327 159.473 516.768 162.906 515.451M183.278 507.719C169.915 512.209 163.013 515.379 151.351 521.754C150.897 522.003 150.9 522.548 151.046 523.044C151.21 523.599 151.964 523.644 152.055 523.649C152.754 523.683 153.992 523.32 153.992 523.32L164.131 519.222M153.992 523.32C156.48 521.093 174.037 512.28 180.923 510.612M180.923 510.612C181.809 510.193 182.648 509.796 183.424 509.429M186.529 510.136L183.278 507.719" stroke="black" stroke-width="0.2"/>
<path d="M59.5279 264.692C70.7385 259.16 87.1575 253.333 88.8015 253.8C89.1966 253.912 89.1218 254.661 89.1218 254.661M75.523 263.951L59.8361 270.262C59.8361 270.262 58.5986 270.625 57.8994 270.591C57.8081 270.586 57.0547 270.541 56.8908 269.986C56.7441 269.49 56.7411 268.945 57.1951 268.696C68.8578 262.321 75.7589 259.151 89.1218 254.661M89.1218 254.661L92.3735 257.078M59.8361 270.262C62.3239 268.035 79.8814 259.222 86.7675 257.554M89.2679 256.371C88.4921 256.738 87.6536 257.135 86.7675 257.554M73.728 260.444C73.728 260.444 63.1399 264.916 58.1383 265.699C57.3898 265.816 56.6862 265.843 56.2902 265.21C55.8784 264.552 56.0421 263.602 56.7467 263.276C66.3996 258.818 86.7531 251.719 88.5812 251.627C90.0634 251.553 90.4293 252.116 90.6115 252.342C91.8489 253.879 92.3735 257.078 92.3735 257.078L90.3071 257.847L86.7675 257.554" stroke="black" stroke-width="0.2"/>
<path d="M53.0043 247.86C64.215 242.329 80.634 236.502 82.2779 236.968C82.673 237.081 82.5982 237.829 82.5982 237.829M68.564 247.266L53.3125 253.431C53.3125 253.431 52.075 253.793 51.3758 253.759C51.2845 253.755 50.5311 253.709 50.3672 253.154C50.2206 252.658 50.2176 252.113 50.6716 251.865C62.3342 245.49 69.2353 242.319 82.5982 237.829M82.5982 237.829L85.8499 240.246M53.3125 253.431C55.8003 251.203 73.3578 242.391 80.244 240.722M82.7444 239.539C81.9685 239.906 81.1301 240.303 80.244 240.722M67.1866 243.564C67.1866 243.564 56.6164 248.085 51.6147 248.867C50.8662 248.985 50.1626 249.012 49.7666 248.379C49.3549 247.721 49.5186 246.77 50.2231 246.445C59.876 241.986 80.2295 234.888 82.0576 234.796C83.5398 234.721 83.9057 235.284 84.088 235.511C85.3253 237.048 85.8499 240.246 85.8499 240.246L83.7835 241.015L80.244 240.722" stroke="black" stroke-width="0.2"/>
<path d="M46.832 230.57C58.0427 225.039 74.4617 219.212 76.1056 219.678C76.5008 219.791 76.426 220.539 76.426 220.539M76.426 220.539C63.063 225.029 56.1619 228.2 44.4993 234.575C44.0453 234.823 44.0483 235.368 44.1949 235.864C44.3589 236.419 45.1122 236.465 45.2035 236.469C45.9028 236.503 47.1403 236.141 47.1403 236.141L63.6712 229.99M76.426 220.539L79.6776 222.956M76.5721 222.249C75.7962 222.616 74.9578 223.013 74.0717 223.432M61.0322 226.322C61.0322 226.322 50.4441 230.794 45.4424 231.577C44.694 231.695 43.9903 231.722 43.5943 231.089C43.1826 230.431 43.3463 229.48 44.0509 229.155C53.7037 224.696 74.0572 217.598 75.8854 217.506C77.3676 217.431 77.7335 217.994 77.9157 218.221C79.1531 219.758 79.6776 222.956 79.6776 222.956L77.6113 223.725L74.0717 223.432M74.0717 223.432C68.4272 224.8 55.6127 230.967 49.8049 234.374" stroke="black" stroke-width="0.2"/>
<path d="M40.5803 213.768C51.7909 208.236 68.2099 202.409 69.8539 202.876C70.249 202.988 70.1742 203.737 70.1742 203.737M70.1742 203.737C56.8112 208.227 49.9101 211.397 38.2475 217.772C37.7935 218.02 37.7965 218.565 37.9431 219.062C38.1071 219.616 38.8605 219.662 38.9518 219.666C39.651 219.7 40.8885 219.338 40.8885 219.338L57.6776 212.564M70.1742 203.737L73.4259 206.153M70.3203 205.447C69.5444 205.814 68.706 206.21 67.8199 206.63M54.7804 209.519C54.7804 209.519 44.1923 213.992 39.1906 214.775C38.4422 214.892 37.7386 214.919 37.3426 214.286C36.9308 213.628 37.0945 212.677 37.7991 212.352C47.452 207.894 67.8055 200.795 69.6336 200.703C71.1158 200.629 71.4817 201.192 71.6639 201.418C72.9013 202.955 73.4259 206.153 73.4259 206.153L71.3595 206.922L67.8199 206.63M67.8199 206.63C62.6679 207.878 51.5423 213.125 45.2238 216.622" stroke="black" stroke-width="0.2"/>
<path d="M34.1683 196.534C45.379 191.003 61.7979 185.176 63.4419 185.642C63.837 185.754 63.7622 186.503 63.7622 186.503M63.7622 186.503C50.3993 190.993 43.4982 194.164 31.8355 200.539C31.3815 200.787 31.3845 201.332 31.5312 201.828C31.6951 202.383 32.4485 202.428 32.5398 202.433C33.239 202.467 34.4765 202.105 34.4765 202.105L51.6471 195.302M63.7622 186.503L67.0139 188.92M63.9083 188.213C63.1325 188.58 62.294 188.977 61.4079 189.396M48.3355 192.3C48.3355 192.3 37.7803 196.758 32.7787 197.541C32.0302 197.658 31.3266 197.686 30.9306 197.053C30.5188 196.395 30.6825 195.444 31.3871 195.118C41.04 190.66 61.3935 183.562 63.2216 183.47C64.7038 183.395 65.0697 183.958 65.2519 184.185C66.4893 185.722 67.0139 188.92 67.0139 188.92L64.9475 189.689L61.4079 189.396M61.4079 189.396C55.6201 190.799 42.2936 197.248 36.7126 200.592" stroke="black" stroke-width="0.2"/>
<path d="M28.2048 180.506C39.4154 174.975 55.8344 169.148 57.4783 169.614C57.8735 169.727 57.7987 170.475 57.7987 170.475M57.7987 170.475C44.4357 174.965 37.5346 178.136 25.872 184.511C25.418 184.759 25.421 185.304 25.5676 185.8C25.7316 186.355 26.485 186.401 26.5763 186.405C27.2755 186.439 28.8772 185.739 28.8772 185.739L46.097 179.332M57.7987 170.475L61.0503 172.892M57.9448 172.185C57.1689 172.552 56.3305 172.949 55.4444 173.368M42.387 176.21C42.387 176.21 31.8168 180.731 26.8151 181.513C26.0667 181.631 25.3631 181.658 24.967 181.025C24.5553 180.367 24.719 179.416 25.4236 179.091C35.0765 174.632 55.4299 167.534 57.2581 167.442C58.7403 167.367 59.1062 167.93 59.2884 168.157C60.5258 169.694 61.0503 172.892 61.0503 172.892L58.984 173.661L55.4444 173.368M55.4444 173.368C49.7585 174.746 37.0454 180.764 31.3859 184.074" stroke="black" stroke-width="0.2"/>
<path d="M21.4083 162.24C32.619 156.709 49.038 150.882 50.6819 151.348C51.0771 151.461 51.0023 152.209 51.0023 152.209M39.5859 160.779L21.7166 167.811C21.7166 167.811 20.4791 168.173 19.7798 168.139C19.6885 168.135 18.9352 168.089 18.7712 167.534C18.6246 167.038 18.6216 166.493 19.0756 166.245C30.7382 159.87 37.6393 156.699 51.0023 152.209M51.0023 152.209L54.2539 154.626M21.7166 167.811C24.2044 165.583 41.7619 156.771 48.648 155.102M51.1484 153.919C50.3725 154.286 49.5341 154.683 48.648 155.102M35.6085 157.992C35.6085 157.992 25.0204 162.464 20.0187 163.247C19.2703 163.364 18.5667 163.392 18.1706 162.759C17.7589 162.101 17.9226 161.15 18.6272 160.825C28.28 156.366 48.6335 149.268 50.4617 149.176C51.9439 149.101 52.3098 149.664 52.492 149.891C53.7294 151.428 54.2539 154.626 54.2539 154.626L52.1876 155.395L48.648 155.102" stroke="black" stroke-width="0.2"/>
<path d="M15.2207 145.61C26.4314 140.078 42.8503 134.251 44.4943 134.718C44.8894 134.83 44.8146 135.579 44.8146 135.579M33.8878 143.883L15.5289 151.18C15.5289 151.18 14.2914 151.542 13.5922 151.509C13.5009 151.504 12.7475 151.459 12.5836 150.904C12.4369 150.408 12.4339 149.863 12.8879 149.614C24.5506 143.239 31.4517 140.069 44.8146 135.579M44.8146 135.579L48.0663 137.996M15.5289 151.18C18.0167 148.953 35.5742 140.14 42.4603 138.472M44.9607 137.289C44.1849 137.656 43.3464 138.053 42.4603 138.472M29.4208 141.362C29.4208 141.362 18.8327 145.834 13.8311 146.617C13.0826 146.734 12.379 146.761 11.983 146.128C11.5712 145.47 11.7349 144.52 12.4395 144.194C22.0924 139.736 42.4459 132.637 44.274 132.545C45.7562 132.471 46.1221 133.034 46.3043 133.26C47.5417 134.797 48.0663 137.996 48.0663 137.996L45.9999 138.765L42.4603 138.472" stroke="black" stroke-width="0.2"/>
<path d="M9.03293 128.979C20.2436 123.448 36.6626 117.621 38.3065 118.088C38.7017 118.2 38.6269 118.949 38.6269 118.949M27.9093 127.288L9.34117 134.55C9.34117 134.55 8.10366 134.912 7.40442 134.878C7.31313 134.874 6.55976 134.828 6.39582 134.273C6.24918 133.777 6.24618 133.232 6.70019 132.984C18.3628 126.609 25.2639 123.438 38.6269 118.949M38.6269 118.949L41.8785 121.365M9.34117 134.55C11.829 132.322 29.3865 123.51 36.2726 121.841M38.773 120.659C37.9971 121.026 37.1587 121.422 36.2726 121.841M23.2152 124.683C23.2152 124.683 12.645 129.204 7.64332 129.987C6.89486 130.104 6.19125 130.131 5.79522 129.498C5.3835 128.84 5.54719 127.889 6.25178 127.564C15.9046 123.106 36.2581 116.007 38.0863 115.915C39.5685 115.84 39.9344 116.404 40.1166 116.63C41.354 118.167 41.8785 121.365 41.8785 121.365L39.8121 122.134L36.2726 121.841" stroke="black" stroke-width="0.2"/>
</svg>
